<mxfile host="www.draw.io" modified="2020-02-25T18:39:49.955Z" agent="Mozilla/5.0 (Windows NT 10.0; Win64; x64) AppleWebKit/537.36 (KHTML, like Gecko) Chrome/79.0.3945.130 Safari/537.36" etag="JCEaOE9aJH0deytRa506" version="12.7.6" type="github">
  <diagram name="Page-1" id="c9db0220-8083-56f3-ca83-edcdcd058819">
    <mxGraphModel dx="942" dy="614" grid="1" gridSize="10" guides="1" tooltips="1" connect="1" arrows="1" fold="1" page="1" pageScale="1.5" pageWidth="826" pageHeight="1169" background="#ffffff" math="0" shadow="0">
      <root>
        <mxCell id="0" style=";html=1;" />
        <mxCell id="1" style=";html=1;" parent="0" />
        <mxCell id="3d76a8aef4d5c911-1" value="" style="html=1;shadow=0;dashed=0;shape=mxgraph.bootstrap.rect;fillColor=#dae8fc;strokeColor=#6c8ebf;whiteSpace=wrap;rounded=0;fontSize=12;align=center;" parent="1" vertex="1">
          <mxGeometry x="20" y="90" width="900" height="40" as="geometry" />
        </mxCell>
        <mxCell id="3d76a8aef4d5c911-2" value="=" style="html=1;shadow=0;dashed=0;fillColor=none;strokeColor=none;shape=mxgraph.bootstrap.rect;fontColor=#999999;fontSize=14;whiteSpace=wrap;" parent="3d76a8aef4d5c911-1" vertex="1">
          <mxGeometry width="89.99999999999999" height="40" as="geometry" />
        </mxCell>
        <mxCell id="3d76a8aef4d5c911-9" value="Contact Me" style="html=1;shadow=0;dashed=0;fillColor=none;strokeColor=none;shape=mxgraph.bootstrap.rect;fontColor=#999999;whiteSpace=wrap;" parent="3d76a8aef4d5c911-1" vertex="1">
          <mxGeometry x="742.4999999999999" width="78.74999999999999" height="40" as="geometry" />
        </mxCell>
        <mxCell id="3d76a8aef4d5c911-10" value="Source" style="html=1;shadow=0;dashed=0;fillColor=none;strokeColor=none;shape=mxgraph.bootstrap.rect;fontColor=#999999;whiteSpace=wrap;" parent="3d76a8aef4d5c911-1" vertex="1">
          <mxGeometry x="821.2500000000001" width="78.74999999999999" height="40" as="geometry" />
        </mxCell>
        <mxCell id="CEBBcHVAcw9snyn9g1Xv-9" value="About Me" style="html=1;shadow=0;dashed=0;fillColor=none;strokeColor=none;shape=mxgraph.bootstrap.rect;fontColor=#999999;whiteSpace=wrap;" parent="3d76a8aef4d5c911-1" vertex="1">
          <mxGeometry x="669.9130434782608" width="78.74999999999999" height="40" as="geometry" />
        </mxCell>
        <mxCell id="3d76a8aef4d5c911-17" value="Full Name&amp;nbsp;" style="html=1;shadow=0;dashed=0;shape=mxgraph.bootstrap.rect;strokeColor=none;fillColor=none;fontColor=#999999;align=left;spacingLeft=5;whiteSpace=wrap;rounded=0;" parent="1" vertex="1">
          <mxGeometry x="40" y="130" width="200" height="20" as="geometry" />
        </mxCell>
        <mxCell id="-M2UdO1UGDXAZF7r_M1f-2" value="Email&lt;br&gt;" style="html=1;shadow=0;dashed=0;shape=mxgraph.bootstrap.rect;strokeColor=none;fillColor=none;fontColor=#999999;align=left;spacingLeft=5;whiteSpace=wrap;rounded=0;" vertex="1" parent="1">
          <mxGeometry x="450" y="130" width="200" height="20" as="geometry" />
        </mxCell>
        <mxCell id="3d76a8aef4d5c911-18" value="&lt;span style=&quot;font-size: 12px&quot;&gt;LOREM IPSUM&amp;nbsp;&lt;/span&gt;" style="html=1;shadow=0;dashed=0;shape=mxgraph.bootstrap.rrect;rSize=5;strokeColor=#dddddd;;align=left;spacingLeft=10;fontSize=16;whiteSpace=wrap;rounded=0;" parent="1" vertex="1">
          <mxGeometry x="40" y="150" width="210" height="40" as="geometry" />
        </mxCell>
        <mxCell id="3d76a8aef4d5c911-19" value="Subject" style="html=1;shadow=0;dashed=0;shape=mxgraph.bootstrap.rect;strokeColor=none;fillColor=none;fontColor=#999999;align=left;spacingLeft=5;whiteSpace=wrap;rounded=0;" parent="1" vertex="1">
          <mxGeometry x="40" y="210" width="200" height="20" as="geometry" />
        </mxCell>
        <mxCell id="3d76a8aef4d5c911-20" value="&lt;span style=&quot;font-size: 12px&quot;&gt;LOREM IPSUM&amp;nbsp;&lt;/span&gt;" style="html=1;shadow=0;dashed=0;shape=mxgraph.bootstrap.rrect;rSize=5;strokeColor=#dddddd;align=left;spacingLeft=10;fontSize=16;whiteSpace=wrap;rounded=0;" parent="1" vertex="1">
          <mxGeometry x="30" y="230" width="330" height="180" as="geometry" />
        </mxCell>
        <mxCell id="3d76a8aef4d5c911-23" value="Message" style="html=1;shadow=0;dashed=0;shape=mxgraph.bootstrap.rect;strokeColor=none;fillColor=none;fontColor=#999999;align=left;spacingLeft=5;whiteSpace=wrap;rounded=0;" parent="1" vertex="1">
          <mxGeometry x="455" y="210" width="200" height="20" as="geometry" />
        </mxCell>
        <mxCell id="3d76a8aef4d5c911-24" value="LOREM IPSUM&amp;nbsp;" style="html=1;shadow=0;dashed=0;shape=mxgraph.bootstrap.rrect;rSize=5;fontSize=12;strokeColor=#dddddd;align=left;spacing=10;verticalAlign=top;whiteSpace=wrap;rounded=0;" parent="1" vertex="1">
          <mxGeometry x="450" y="230" width="370" height="180" as="geometry" />
        </mxCell>
        <mxCell id="3d76a8aef4d5c911-51" value="Send" style="html=1;shadow=0;dashed=0;shape=mxgraph.bootstrap.rrect;align=center;rSize=5;strokeColor=none;fillColor=#3333FF;fontColor=#ffffff;fontSize=16;whiteSpace=wrap;rounded=0;" parent="1" vertex="1">
          <mxGeometry x="420" y="480" width="150" height="40" as="geometry" />
        </mxCell>
        <mxCell id="3d76a8aef4d5c911-52" value="&lt;font color=&quot;#ffffff&quot;&gt;Reset&lt;/font&gt;" style="html=1;shadow=0;dashed=0;shape=mxgraph.bootstrap.rrect;align=center;rSize=5;strokeColor=#6C8EBF;fontSize=16;whiteSpace=wrap;rounded=0;fillColor=#3333FF;" parent="1" vertex="1">
          <mxGeometry x="585" y="480" width="100" height="40" as="geometry" />
        </mxCell>
        <mxCell id="CEBBcHVAcw9snyn9g1Xv-11" value="" style="html=1;shadow=0;dashed=0;shape=mxgraph.bootstrap.rect;fillColor=#222222;strokeColor=none;whiteSpace=wrap;rounded=0;fontSize=12;fontColor=#000000;align=center;" parent="1" vertex="1">
          <mxGeometry x="20" y="560" width="910" height="120" as="geometry" />
        </mxCell>
        <mxCell id="CEBBcHVAcw9snyn9g1Xv-17" value="&lt;h5 class=&quot;white-text&quot; style=&quot;box-sizing: inherit ; font-weight: 400 ; line-height: 27.06px ; font-size: 1.64rem ; margin: 1.09333rem 0px 0.656rem ; color: rgb(255 , 255 , 255) ; font-family: , &amp;#34;blinkmacsystemfont&amp;#34; , &amp;#34;segoe ui&amp;#34; , &amp;#34;roboto&amp;#34; , , &amp;#34;ubuntu&amp;#34; , &amp;#34;cantarell&amp;#34; , &amp;#34;helvetica neue&amp;#34; , sans-serif ; background-color: rgb(0 , 0 , 0)&quot;&gt;Developer and Copyright&lt;/h5&gt;&lt;p style=&quot;box-sizing: inherit ; color: rgb(255 , 255 , 255) ; font-family: , &amp;#34;blinkmacsystemfont&amp;#34; , &amp;#34;segoe ui&amp;#34; , &amp;#34;roboto&amp;#34; , , &amp;#34;ubuntu&amp;#34; , &amp;#34;cantarell&amp;#34; , &amp;#34;helvetica neue&amp;#34; , sans-serif ; font-size: 15px ; background-color: rgb(0 , 0 , 0)&quot;&gt;Copyright Â© 2020 - Present ,&amp;nbsp;&lt;a class=&quot;blue-text text-lighten-3&quot; href=&quot;http://davidepollicino.com&quot; style=&quot;box-sizing: inherit ; background-color: transparent ; color: rgb(144 , 202 , 249)&quot;&gt;Davide Pollicino&lt;/a&gt;&lt;/p&gt;" style="html=1;shadow=0;dashed=0;fillColor=none;strokeColor=none;shape=mxgraph.bootstrap.rect;fontColor=#999999;whiteSpace=wrap;" parent="CEBBcHVAcw9snyn9g1Xv-11" vertex="1">
          <mxGeometry x="538.086956521739" width="218.89852173913042" height="120" as="geometry" />
        </mxCell>
        <mxCell id="CEBBcHVAcw9snyn9g1Xv-21" value="&lt;h5 class=&quot;white-text&quot; style=&quot;box-sizing: inherit ; font-weight: 400 ; line-height: 27.06px ; font-size: 1.64rem ; margin: 1.09333rem 0px 0.656rem ; color: rgb(255 , 255 , 255) ; background-color: rgb(0 , 0 , 0)&quot;&gt;Connect&lt;/h5&gt;" style="text;html=1;strokeColor=none;fillColor=none;align=center;verticalAlign=middle;whiteSpace=wrap;rounded=0;" parent="CEBBcHVAcw9snyn9g1Xv-11" vertex="1">
          <mxGeometry x="87.04347826086955" y="20" width="79.13043478260869" height="30" as="geometry" />
        </mxCell>
        <mxCell id="CEBBcHVAcw9snyn9g1Xv-24" value="&lt;h5 class=&quot;white-text&quot; style=&quot;box-sizing: inherit ; font-weight: 400 ; line-height: 27.06px ; font-size: 1.64rem ; margin: 1.09333rem 0px 0.656rem ; color: rgb(255 , 255 , 255) ; background-color: rgb(0 , 0 , 0)&quot;&gt;Icon 1- 2 - 3&lt;/h5&gt;" style="text;html=1;strokeColor=none;fillColor=none;align=center;verticalAlign=middle;whiteSpace=wrap;rounded=0;" parent="CEBBcHVAcw9snyn9g1Xv-11" vertex="1">
          <mxGeometry x="63.30434782608695" y="70" width="142.43478260869566" height="20" as="geometry" />
        </mxCell>
        <mxCell id="CEBBcHVAcw9snyn9g1Xv-25" style="edgeStyle=orthogonalEdgeStyle;rounded=0;orthogonalLoop=1;jettySize=auto;html=1;exitX=0.5;exitY=1;exitDx=0;exitDy=0;" parent="CEBBcHVAcw9snyn9g1Xv-11" source="CEBBcHVAcw9snyn9g1Xv-24" target="CEBBcHVAcw9snyn9g1Xv-24" edge="1">
          <mxGeometry relative="1" as="geometry" />
        </mxCell>
        <mxCell id="-M2UdO1UGDXAZF7r_M1f-1" value="&lt;span style=&quot;font-size: 12px&quot;&gt;LOREM IPSUM&amp;nbsp;&lt;/span&gt;" style="html=1;shadow=0;dashed=0;shape=mxgraph.bootstrap.rrect;rSize=5;strokeColor=#dddddd;;align=left;spacingLeft=10;fontSize=16;whiteSpace=wrap;rounded=0;" vertex="1" parent="1">
          <mxGeometry x="450" y="150" width="210" height="40" as="geometry" />
        </mxCell>
        <mxCell id="-M2UdO1UGDXAZF7r_M1f-6" value="&lt;span style=&quot;font-size: 12px&quot;&gt;File.pdf&lt;/span&gt;" style="html=1;shadow=0;dashed=0;shape=mxgraph.bootstrap.rrect;rSize=5;strokeColor=#dddddd;;align=left;spacingLeft=10;fontSize=16;whiteSpace=wrap;rounded=0;" vertex="1" parent="1">
          <mxGeometry x="70" y="480" width="210" height="40" as="geometry" />
        </mxCell>
        <mxCell id="-M2UdO1UGDXAZF7r_M1f-7" value="Upload a file&amp;nbsp;" style="html=1;shadow=0;dashed=0;shape=mxgraph.bootstrap.rect;strokeColor=none;fillColor=none;fontColor=#999999;align=left;spacingLeft=5;whiteSpace=wrap;rounded=0;" vertex="1" parent="1">
          <mxGeometry x="70" y="460" width="130" height="20" as="geometry" />
        </mxCell>
      </root>
    </mxGraphModel>
  </diagram>
</mxfile>
